<svg width="53" height="91" viewBox="0 0 53 91" fill="none" xmlns="http://www.w3.org/2000/svg">
<path fill-rule="evenodd" clip-rule="evenodd" d="M30.8835 33.4829C28.7365 32.571 23.2363 30.8821 23.2363 22.8339C23.2363 14.7858 36.564 -2.34861 44.0057 0.416357C51.4475 3.18132 48.2336 23.9732 44.0057 29.9083C39.7779 35.8435 33.0305 34.3947 30.8835 33.4829Z" fill="#C5DDF0"/>
<path d="M27.0025 72.279H26.4565C26.4565 46.0228 31.3044 24.678 41.0059 8.24744L41.4761 8.52504C31.829 24.8635 27.0025 46.1139 27.0025 72.279Z" fill="#7297C4"/>
<path fill-rule="evenodd" clip-rule="evenodd" d="M20.1858 52.8204C23.72 51.3662 28.7658 45.5578 25.0965 37.2876C21.4271 29.0174 8.45053 18.6602 2.33534 23.9745C-3.77986 29.2889 3.61541 46.726 7.43008 50.8077C11.2447 54.8894 16.6516 54.2746 20.1858 52.8204Z" fill="#C5DDF0"/>
<path d="M22.7767 72.2804L22.2307 72.2776C22.3141 55.7727 17.87 42.5817 8.90234 32.6906L9.30684 32.3238C18.3721 42.3225 22.8607 55.646 22.7767 72.2804Z" fill="#7297C4"/>
<path fill-rule="evenodd" clip-rule="evenodd" d="M34.993 58.0305C33.0085 56.5391 30.0482 54.5333 32.644 47.8786C35.2398 41.2238 46.9102 34.6451 50.7931 38.3659C54.6759 42.0868 50.0734 54.8571 45.6569 58.3285C41.2404 61.8 36.9774 59.5219 34.993 58.0305Z" fill="#C5DDF0"/>
<path d="M31.7983 72.3269L31.2607 72.2311C33.4504 59.9421 38.1921 50.1453 45.4877 42.8485L45.8738 43.2345C38.6616 50.4479 33.9692 60.1428 31.7983 72.3269Z" fill="#7297C4"/>
<path fill-rule="evenodd" clip-rule="evenodd" d="M12.7349 68.9288H42.1029V80.7583C42.1029 85.9277 37.9123 90.1183 32.7429 90.1183H22.0949C16.9255 90.1183 12.7349 85.9277 12.7349 80.7583V68.9288Z" fill="url(#paint0_linear_0_52)"/>
<mask id="mask0_0_52" style="mask-type:luminance" maskUnits="userSpaceOnUse" x="12" y="68" width="31" height="23">
<path fill-rule="evenodd" clip-rule="evenodd" d="M12.7349 68.9288H42.1029V80.7583C42.1029 85.9277 37.9123 90.1183 32.7429 90.1183H22.0949C16.9255 90.1183 12.7349 85.9277 12.7349 80.7583V68.9288Z" fill="white"/>
</mask>
<g mask="url(#mask0_0_52)">
<path d="M11.541 73.2738V72.7278H42.781V73.2738H11.541Z" fill="#7297C4"/>
<path d="M11.541 76.9183V76.3723H42.781V76.9183H11.541Z" fill="#7297C4"/>
</g>
<defs>
<linearGradient id="paint0_linear_0_52" x1="13.4169" y1="53.8452" x2="-13.3801" y2="100.137" gradientUnits="userSpaceOnUse">
<stop stop-color="#CBDDEE"/>
<stop offset="1" stop-color="#B8D0E6"/>
<stop offset="1" stop-color="#B8D0E6"/>
</linearGradient>
</defs>
</svg>
